<svg width="21" height="21" viewBox="0 0 21 21" fill="none" xmlns="http://www.w3.org/2000/svg">
<path d="M10.5 0C13.2848 0 15.9555 1.06015 17.9246 2.94724C19.8938 4.83432 21 7.39376 21 10.0625C21 12.7312 19.8938 15.2907 17.9246 17.1778C15.9555 19.0648 13.2848 20.125 10.5 20.125C7.71523 20.125 5.04451 19.0648 3.07538 17.1778C1.10625 15.2907 0 12.7312 0 10.0625C0 7.39376 1.10625 4.83432 3.07538 2.94724C5.04451 1.06015 7.71523 0 10.5 0ZM9.192 12.0477L6.8595 9.81094C6.77588 9.7308 6.67661 9.66724 6.56736 9.62387C6.4581 9.5805 6.34101 9.55818 6.22275 9.55818C6.10449 9.55818 5.9874 9.5805 5.87814 9.62387C5.76889 9.66724 5.66962 9.7308 5.586 9.81094C5.41712 9.97278 5.32225 10.1923 5.32225 10.4212C5.32225 10.65 5.41712 10.8695 5.586 11.0314L8.556 13.8776C8.63938 13.9582 8.73858 14.0221 8.84786 14.0657C8.95715 14.1093 9.07436 14.1318 9.19275 14.1318C9.31114 14.1318 9.42835 14.1093 9.53764 14.0657C9.64692 14.0221 9.74612 13.9582 9.8295 13.8776L15.9795 7.98244C16.0642 7.90263 16.1316 7.80754 16.1778 7.70265C16.224 7.59775 16.2481 7.48513 16.2487 7.37128C16.2492 7.25743 16.2262 7.14459 16.1811 7.03929C16.1359 6.93399 16.0694 6.8383 15.9854 6.75775C15.9015 6.67719 15.8017 6.61337 15.6919 6.56995C15.5821 6.52653 15.4644 6.50438 15.3455 6.50477C15.2267 6.50517 15.1092 6.5281 14.9997 6.57225C14.8902 6.6164 14.7909 6.68089 14.7075 6.762L9.192 12.0477Z" fill="#4ECA64"/>
</svg>
